<?xml version="1.0" standalone="no"?>
<!DOCTYPE svg PUBLIC "-//W3C//DTD SVG 20010904//EN"
 "http://www.w3.org/TR/2001/REC-SVG-20010904/DTD/svg10.dtd">
<svg version="1.0" xmlns="http://www.w3.org/2000/svg"
 width="494.000000pt" height="131.000000pt" viewBox="0 0 494.000000 131.000000"
 preserveAspectRatio="xMidYMid meet">
<metadata>
Created by potrace 1.16, written by Peter Selinger 2001-2019
</metadata>
<g transform="translate(0.000000,131.000000) scale(0.100000,-0.100000)"
fill="#000000" stroke="none">
<path d="M763 1300 c-12 -5 -29 -19 -37 -32 -8 -13 -64 -284 -124 -603 -99
-521 -109 -583 -97 -611 8 -21 24 -35 45 -43 41 -14 2337 -15 2375 -1 14 5 33
23 44 40 l19 31 6 -26 c14 -56 2 -55 880 -52 l805 2 22 21 c16 16 28 59 51
176 27 138 29 158 17 183 -8 15 -23 33 -34 39 -11 6 -22 12 -24 14 -3 1 5 12
17 25 15 16 28 61 50 177 30 160 29 191 -5 218 -14 10 -11 12 24 12 70 0 86
27 117 188 32 169 32 184 2 219 l-24 28 -850 0 c-822 0 -851 -1 -871 -19 -12
-11 -21 -25 -21 -33 0 -7 -4 -13 -10 -13 -5 0 -10 6 -10 13 0 8 -9 22 -21 33
-20 18 -40 19 -328 19 -168 -1 -322 -1 -341 -2 -19 -1 -272 0 -561 3 -332 3
-536 1 -552 -5 -14 -6 -33 -20 -41 -33 -8 -13 -44 -180 -81 -373 -36 -192 -70
-374 -76 -402 l-10 -53 -50 0 c-27 0 -49 1 -49 3 0 1 33 178 74 392 66 348 72
393 61 421 -8 21 -24 35 -45 43 -39 13 -314 14 -347 1z m317 -83 c0 -2 -36
-194 -80 -427 -44 -233 -80 -425 -80 -427 0 -1 52 -3 115 -3 114 0 115 0 110
-22 -6 -31 -45 -238 -45 -244 0 -2 -117 -4 -261 -4 l-261 0 6 27 c12 59 206
1091 206 1097 0 3 65 6 145 6 80 0 145 -2 145 -3z m960 -9 c0 -13 -194 -1050
-205 -1096 l-5 -22 -346 0 -346 0 6 27 c12 59 206 1091 206 1097 0 3 155 6
345 6 269 0 345 -3 345 -12z m330 9 c0 -2 -36 -194 -80 -427 -44 -233 -80
-425 -80 -427 0 -2 26 -3 57 -1 l57 3 81 427 80 428 143 0 c107 0 142 -3 142
-12 0 -13 -194 -1050 -205 -1096 l-5 -22 -346 0 -346 0 6 27 c12 59 206 1091
206 1097 0 3 65 6 145 6 80 0 145 -2 145 -3z m724 -184 c21 -104 42 -197 46
-207 6 -17 80 332 80 378 0 14 18 16 145 16 109 0 145 -3 145 -12 0 -13 -194
-1050 -205 -1096 -5 -21 -9 -22 -120 -22 l-114 0 -10 38 c-5 20 -24 107 -41
192 -17 85 -34 162 -37 170 -7 18 -9 8 -53 -227 l-32 -173 -145 0 -145 0 6 27
c12 59 206 1091 206 1097 0 3 53 6 118 6 l117 0 39 -187z m1145 170 c0 -10
-15 -94 -33 -188 l-32 -170 -143 -3 -143 -3 7 56 6 55 -55 0 -55 0 -10 -52
c-14 -66 -101 -530 -101 -534 0 -8 109 -4 113 4 3 4 8 26 12 49 6 41 6 43 -19
43 -32 0 -32 7 -2 160 l23 115 171 3 c123 2 172 -1 172 -9 0 -11 -105 -572
-115 -617 l-5 -22 -346 0 -346 0 6 27 c12 59 206 1091 206 1097 0 3 155 6 345
6 322 0 345 -1 344 -17z m616 -5 c-2 -13 -14 -74 -26 -135 l-22 -113 -143 0
-143 0 -11 -57 c-6 -32 -14 -68 -17 -80 -5 -23 -4 -23 111 -23 64 0 116 -1
116 -2 0 -2 -11 -61 -25 -133 -14 -71 -25 -130 -25 -132 0 -2 -51 -3 -114 -3
-101 0 -115 -2 -120 -17 -4 -16 -26 -131 -26 -140 0 -2 63 -3 140 -3 127 0
140 -2 140 -17 0 -10 -10 -71 -22 -136 l-22 -117 -289 0 -289 0 6 27 c12 59
206 1091 206 1097 0 3 131 6 290 6 l290 0 -5 -22z"/>
<path d="M1581 898 c-14 -70 -101 -530 -101 -535 0 -2 26 -3 57 -1 l57 3 53
275 c28 151 52 283 52 293 1 14 -8 17 -53 17 l-55 0 -10 -52z"/>
<path d="M107 1020 c-29 -23 -34 -41 -77 -287 -32 -182 -31 -201 10 -238 20
-18 39 -20 189 -23 265 -5 284 2 306 108 16 78 11 114 -23 140 l-25 20 17 89
c23 125 21 157 -9 186 -24 25 -27 25 -193 25 -154 0 -172 -2 -195 -20z m333
-63 c0 -1 -11 -65 -25 -141 -14 -77 -25 -146 -25 -153 0 -8 13 -13 36 -13 36
0 36 -1 30 -31 -3 -17 -6 -38 -6 -45 0 -11 -34 -14 -180 -14 -116 0 -180 4
-180 10 0 13 60 361 65 377 3 10 41 13 145 12 77 0 140 -1 140 -2z"/>
</g>
</svg>
